<svg width="14" height="14" viewBox="0 0 14 14" fill="none" xmlns="http://www.w3.org/2000/svg">
<path d="M9.15625 6.71484V2.46484L7.03125 0.339844L4.90625 2.46484V3.88151H0.65625V13.7982H13.4062V6.71484H9.15625ZM3.48958 12.3815H2.07292V10.9648H3.48958V12.3815ZM3.48958 9.54818H2.07292V8.13151H3.48958V9.54818ZM3.48958 6.71484H2.07292V5.29818H3.48958V6.71484ZM7.73958 12.3815H6.32292V10.9648H7.73958V12.3815ZM7.73958 9.54818H6.32292V8.13151H7.73958V9.54818ZM7.73958 6.71484H6.32292V5.29818H7.73958V6.71484ZM7.73958 3.88151H6.32292V2.46484H7.73958V3.88151ZM11.9896 12.3815H10.5729V10.9648H11.9896V12.3815ZM11.9896 9.54818H10.5729V8.13151H11.9896V9.54818Z" fill="#595959"/>
</svg>
