<svg width="27" height="25" viewBox="0 0 27 25" fill="none" xmlns="http://www.w3.org/2000/svg">
<path d="M1.78766 5.41962H16.4195C16.9648 5.41962 17.4069 5.8617 17.4069 6.40704V23.0137C17.4069 23.559 16.9648 24.0011 16.4195 24.0011H1.78766C1.24232 24.0011 0.800234 23.559 0.800234 23.0137V6.40704C0.800234 5.8617 1.24232 5.41962 1.78766 5.41962Z" fill="#E2E2E2" stroke="#8F8F8F" stroke-width="1.25672"/>
<path d="M4.65527 7.35153V3.04278C4.65527 2.74533 4.89641 2.50419 5.19387 2.50419H6.13641C6.35017 1.23459 7.44943 0.304932 8.7369 0.304932H9.18234C10.5513 0.304932 11.7707 1.20286 12.1956 2.50419H13.0035C13.3009 2.50419 13.5421 2.74533 13.5421 3.04278V7.35153C13.5421 7.64899 13.3009 7.89013 13.0035 7.89013H5.19387C4.89641 7.89013 4.65527 7.64899 4.65527 7.35153Z" fill="#ABABAB"/>
<path d="M6.5459 16.5511C8.05695 16.3417 11.1778 16.8294 11.5728 20.4559C11.9767 17.1795 15.2621 10.4739 25.1723 9.86353" stroke="white" stroke-width="1.70555" stroke-linecap="round" stroke-linejoin="round"/>
</svg>
