<svg width="40" height="25" viewBox="0 0 40 25" fill="none" xmlns="http://www.w3.org/2000/svg">
<path d="M37.0379 19.4674H2.10181C2.10181 10.1561 9.65016 2.6077 18.9615 2.6077H20.1782C29.4896 2.6077 37.0379 10.1561 37.0379 19.4674Z" fill="#ABABAB"/>
<path fill-rule="evenodd" clip-rule="evenodd" d="M25.1732 3.35862V10.4711C25.1732 11.071 25.6596 11.5574 26.2595 11.5574C26.8595 11.5574 27.3459 11.071 27.3459 10.4711V4.20182C33.072 6.89623 37.0358 12.7179 37.0358 19.4655H2.09967C2.09967 12.7354 6.04299 6.92637 11.7452 4.2228V10.4724C11.7452 11.0724 12.2315 11.5588 12.8315 11.5588C13.4315 11.5588 13.9178 11.0724 13.9178 10.4724V3.37246C15.5098 2.87425 17.2032 2.60574 18.9594 2.60574H20.1761C21.9159 2.60574 23.5942 2.86928 25.1732 3.35862Z" fill="#E1E1E1"/>
<rect x="15.9636" y="0.000244141" width="7.16973" height="14.4264" rx="3.58487" fill="#C1C1C1"/>
<rect x="0.101562" y="17.2502" width="38.9773" height="6.95247" rx="3.47623" fill="#C1C1C1"/>
</svg>
