<svg width="30" height="26" viewBox="0 0 30 26" fill="none" xmlns="http://www.w3.org/2000/svg">
<rect x="2.08887" y="8.58032" width="25.8882" height="9.67036" fill="#EAEAEA"/>
<path d="M13.313 8.24152V15.0681H16.8734V8.24152L15.0027 5.04321L13.313 8.24152Z" fill="#838383"/>
<path d="M16.8718 8.23188H13.319L14.9936 5.03357L16.8718 8.23188Z" fill="#CBCBCB"/>
<path d="M12.6302 0.0861816H5.07947V17.0651H9.47381L12.6302 0.0861816Z" fill="#CBCBCB"/>
<path d="M20.6409 0.250244H24.5361C26.9631 0.250244 28.9306 2.24857 28.9306 4.67561C28.9306 4.7414 28.8773 4.79557 28.8115 4.79557H28.7665C28.7255 4.79557 28.6923 4.76239 28.6923 4.72145C28.6923 3.63376 27.8106 2.75201 26.7229 2.75201H24.7111C23.6353 2.75201 22.7632 3.62408 22.7632 4.69983V5.03384H20.5181V4.14201C20.5181 3.37433 19.8957 2.75201 19.1281 2.75201H18.5947C18.2196 2.75201 17.9155 3.05609 17.9155 3.4312C17.9155 3.53184 17.8339 3.61342 17.7333 3.61342H17.2832C16.934 3.61342 16.6509 3.33032 16.6509 2.98111V0.882558C16.6509 0.533341 16.934 0.250244 17.2832 0.250244H17.8623C17.8917 0.250244 17.9155 0.274054 17.9155 0.303424C17.9155 0.613149 18.1666 0.86423 18.4763 0.86423H20.0269C20.2982 0.86423 20.5181 0.644317 20.5181 0.373041C20.5181 0.305222 20.5731 0.250244 20.6409 0.250244Z" fill="#838383"/>
<path d="M22.7677 4.22681H20.5134V11.8146H22.7677V4.22681Z" fill="#CBCBCB"/>
<path d="M18.9565 13.3337V18.2479H24.3083L24.1931 13.2731C24.1602 11.8509 22.9978 10.7151 21.5752 10.7151C20.1289 10.7151 18.9565 11.8875 18.9565 13.3337Z" fill="#CBCBCB"/>
<path d="M2.62152 6.10376L5.00331 13.1278H25.5026L27.8844 6.10376H29.3055V25.6859H0.882812V6.10376H2.62152Z" fill="#B0B0B0"/>
<path d="M11.548 5.90705H5.07947V0.0861816H12.6302L11.548 5.90705Z" fill="#838383"/>
<path d="M7.38702 2.98276V0.0861816H10.0573V2.98276H7.38702Z" fill="#E8E8E8"/>
</svg>
