<svg width="41" height="21" viewBox="0 0 41 21" fill="none" xmlns="http://www.w3.org/2000/svg">
<path fill-rule="evenodd" clip-rule="evenodd" d="M15.1172 5.94141C15.1172 3.17474 17.3505 0.941406 20.1172 0.941406C22.8839 0.941406 25.1172 3.17474 25.1172 5.94141C25.1172 8.70807 22.8839 10.9414 20.1172 10.9414C17.3505 10.9414 15.1172 8.70807 15.1172 5.94141ZM20.1172 4.27474C21.0339 4.27474 21.7838 5.02474 21.7838 5.94141C21.7838 6.85807 21.0339 7.60807 20.1172 7.60807C19.2005 7.60807 18.4505 6.85807 18.4505 5.94141C18.4505 5.02474 19.2005 4.27474 20.1172 4.27474ZM10.1172 9.27474C10.1172 11.1081 8.61716 12.6081 6.78381 12.6081C4.95053 12.6081 3.4505 11.1081 3.4505 9.27474C3.4505 7.4414 4.95053 5.94141 6.78381 5.94141C8.61716 5.94141 10.1172 7.4414 10.1172 9.27474ZM33.4505 12.6081C35.2839 12.6081 36.7839 11.1081 36.7839 9.27474C36.7839 7.4414 35.2839 5.94141 33.4505 5.94141C31.6172 5.94141 30.1172 7.4414 30.1172 9.27474C30.1172 11.1081 31.6172 12.6081 33.4505 12.6081ZM27.1838 13.6914C25.2339 12.8247 22.8338 12.1914 20.1172 12.1914C17.4005 12.1914 15.0005 12.8414 13.0505 13.6914C11.2505 14.4914 10.1172 16.2914 10.1172 18.2581V20.9414H30.1172V18.2581C30.1172 16.2914 28.9839 14.4914 27.1838 13.6914ZM6.78388 14.2747C7.43387 14.2747 8.05054 14.3414 8.66721 14.4414C8.00049 15.5747 7.61719 16.8747 7.61719 18.2581V20.9414H0.117188V18.3247C0.117188 16.9747 0.917179 15.7747 2.15052 15.2414C3.56718 14.6247 5.13385 14.2747 6.78388 14.2747ZM38.0839 15.2414C39.3172 15.7747 40.1172 16.9747 40.1172 18.3247V20.9414H32.6172V18.2581C32.6172 16.8747 32.2338 15.5747 31.5672 14.4414C32.1838 14.3414 32.8005 14.2747 33.4505 14.2747C35.1005 14.2747 36.6672 14.6247 38.0839 15.2414ZM15.0839 16.4581C13.7838 16.9581 13.7172 17.2247 13.5672 17.6081H26.6672C26.5005 17.2247 26.4338 16.9581 25.1505 16.4581C23.5339 15.8247 21.8339 15.5247 20.1172 15.5247C18.4005 15.5247 16.7005 15.8247 15.0839 16.4581Z" fill="#565656"/>
</svg>
