<svg width="22" height="22" viewBox="0 0 22 22" fill="none" xmlns="http://www.w3.org/2000/svg">
<path d="M8.82873 6.4459C8.35305 5.40285 7.73517 5.133 7.39074 5.12765C7.32136 5.12657 7.25971 5.16554 7.21662 5.21992L5.67518 7.16526C5.55256 7.32001 5.62372 7.55038 5.80992 7.61608C10.9393 9.4259 12.5637 12.7798 12.6246 14.2998C12.6321 14.4871 12.4357 14.5881 12.2625 14.5164C10.8049 13.9131 10.4194 14.4881 9.96852 14.6699C9.66372 14.7928 9.01966 14.7626 8.55474 14.7124C8.38183 14.6938 8.22672 14.8269 8.22672 15.0008V17.4848C8.22672 17.6414 8.35365 17.7683 8.51023 17.7683H17.369C17.5256 17.7683 17.6525 17.6414 17.6525 17.4848V14.9161C17.6525 14.7096 17.4353 14.567 17.2337 14.6115C16.9428 14.6757 16.6606 14.6848 16.4829 14.6763C16.4254 14.6735 16.3719 14.6494 16.3261 14.6146C16.0442 14.4003 15.6517 14.2404 15.3383 14.1406C15.1205 14.0713 14.9585 13.8826 14.8916 13.664C14.7781 13.2929 14.5676 12.9609 14.392 12.7385C14.2897 12.609 14.2358 12.4433 14.2518 12.279C14.4371 10.3784 13.1244 11.3154 12.9616 9.90271C12.7919 8.4291 11.899 8.73768 11.3456 8.30315C10.7923 7.86862 11.0312 6.89881 10.2326 6.97438C9.83352 7.01214 9.49708 6.95521 9.26193 6.88311C9.05568 6.81986 8.91824 6.64217 8.82873 6.4459Z" fill="#E1E1E1"/>
<path d="M0.861084 20.434V13.0742C0.861084 12.592 1.25203 12.201 1.7343 12.201H7.91084C8.3931 12.201 8.78405 12.592 8.78405 13.0742V16.7877C8.78405 17.27 9.175 17.6609 9.65727 17.6609H16.5821C17.0644 17.6609 17.4553 17.27 17.4553 16.7877V13.0742C17.4553 12.592 17.8463 12.201 18.3285 12.201H20.8706C21.3528 12.201 21.7438 12.592 21.7438 13.0742V20.434C21.7438 20.9162 21.3528 21.3072 20.8706 21.3072H1.7343C1.25204 21.3072 0.861084 20.9162 0.861084 20.434Z" fill="#C1C1C1"/>
<path d="M0.742188 5.32081V1.27959C0.742188 0.836325 1.2129 0.551527 1.60554 0.757225L6.60387 3.37573C6.90374 3.53283 7.01008 3.90957 6.83661 4.20027L4.94599 7.36863C4.78219 7.64314 4.4295 7.73715 4.15079 7.5806L1.04309 5.83495C0.857233 5.73055 0.742188 5.53398 0.742188 5.32081Z" fill="#D1D1D1"/>
<path d="M7.08557 2.73572L3.65857 8.42236L4.76608 9.06693C5.07469 9.24654 5.47047 9.14191 5.64999 8.83325L8.31806 4.24605C8.49335 3.94467 8.39805 3.55858 8.10265 3.37338L7.08557 2.73572Z" fill="#C1C1C1"/>
<ellipse cx="2.87785" cy="15.7905" rx="0.987228" ry="0.988707" fill="#8C8C8C"/>
<ellipse cx="6.77109" cy="17.6988" rx="0.918059" ry="0.919435" fill="#8C8C8C"/>
<ellipse cx="19.6472" cy="18.341" rx="0.955787" ry="0.95722" fill="#8C8C8C"/>
<ellipse cx="18.9932" cy="15.7721" rx="0.301828" ry="0.30228" fill="#8C8C8C"/>
<ellipse cx="15.1458" cy="18.9961" rx="0.301828" ry="0.30228" fill="#8C8C8C"/>
<ellipse cx="9.98994" cy="18.9961" rx="0.301828" ry="0.30228" fill="#8C8C8C"/>
<ellipse cx="4.83405" cy="14.4995" rx="0.301828" ry="0.30228" fill="#8C8C8C"/>
<ellipse cx="2.79548" cy="19.2981" rx="0.301828" ry="0.30228" fill="#8C8C8C"/>
<ellipse cx="20.3163" cy="14.5121" rx="0.402437" ry="0.40304" fill="#8C8C8C"/>
<ellipse cx="13.8149" cy="19.7013" rx="0.402437" ry="0.40304" fill="#8C8C8C"/>
<ellipse cx="5.44736" cy="19.7013" rx="0.402437" ry="0.40304" fill="#8C8C8C"/>
</svg>
