<svg width="25" height="25" viewBox="0 0 25 25" fill="none" xmlns="http://www.w3.org/2000/svg">
<path d="M11.835 4.42405L10.6099 4.20586C10.5144 4.18885 10.4268 4.26228 10.4268 4.35929V9.79109C10.4268 9.87716 10.4965 9.94694 10.5826 9.94694H21.0035C21.0643 9.94694 21.1195 9.91159 21.145 9.8564L23.2453 5.30585C23.2707 5.25066 23.326 5.21532 23.3868 5.21532H24.0614C24.1474 5.21532 24.2172 5.14554 24.2172 5.05947V3.87484C24.2172 3.78877 24.1474 3.71899 24.0614 3.71899H22.3338C22.2738 3.71899 22.2191 3.75346 22.1932 3.8076L20.0537 8.28113C20.0278 8.33527 19.9731 8.36973 19.9131 8.36973H12.1194C12.0333 8.36973 11.9635 8.29996 11.9635 8.21389V4.57748C11.9635 4.50195 11.9094 4.43729 11.835 4.42405Z" fill="#ABABAB"/>
<path d="M10.5061 17.4311V24.0457C10.5061 24.1891 10.6224 24.3054 10.7658 24.3054H13.4817C13.6251 24.3054 13.7414 24.1891 13.7414 24.0457V19.4928C13.7414 19.3564 13.8471 19.2436 13.9828 19.2308C16.503 18.9935 17.6804 17.9255 17.893 17.3882C17.9031 17.3628 17.9068 17.3361 17.9068 17.3088V14.054V11.0178C17.9068 10.8743 17.7905 10.7581 17.6471 10.7581H14.9313C14.7878 10.7581 14.6715 10.8743 14.6715 11.0178V15.8078C14.6715 15.962 14.5373 16.0818 14.3834 16.0712C12.2016 15.9217 10.9609 16.7701 10.5541 17.2852C10.5214 17.3267 10.5061 17.3783 10.5061 17.4311Z" fill="#ABABAB"/>
<path d="M9.1985 4.12631L0.901805 2.6801C0.742915 2.6524 0.597462 2.77469 0.597461 2.93598L0.597412 24.0433C0.597412 24.1868 0.713703 24.3031 0.857154 24.3031H9.15385C9.2973 24.3031 9.41359 24.1868 9.41359 24.0433L9.41364 4.38219C9.41364 4.25595 9.32287 4.14799 9.1985 4.12631Z" fill="#E1E1E1"/>
<path d="M0.501254 0.666041C0.495093 0.500886 0.642706 0.372054 0.80551 0.400494L13.297 2.58262C13.4177 2.60371 13.5073 2.70632 13.5119 2.8288L13.5602 4.12568C13.5664 4.29075 13.4189 4.41956 13.2562 4.39127L0.765112 2.21995C0.644281 2.19895 0.554608 2.09629 0.550036 1.97373L0.501254 0.666041Z" fill="#C1C1C1"/>
</svg>
