<svg width="23" height="25" viewBox="0 0 23 25" fill="none" xmlns="http://www.w3.org/2000/svg">
<path d="M11.6406 16.0391C7.96937 16.0391 0.640625 17.8816 0.640625 21.5391V24.2891H22.6406V21.5391C22.6406 17.8816 15.3119 16.0391 11.6406 16.0391Z" fill="#009AE0"/>
<path d="M5.78312 7.78906H17.5119C17.8831 7.78906 18.1856 7.48656 18.1856 7.11531V7.08781C18.1856 6.71656 17.8831 6.41406 17.5119 6.41406H17.1406C17.1406 4.37906 16.0269 2.63281 14.3906 1.67031V2.97656C14.3906 3.36156 14.0881 3.66406 13.7031 3.66406C13.3181 3.66406 13.0156 3.36156 13.0156 2.97656V1.10656C12.5756 0.996562 12.1219 0.914062 11.6406 0.914062C11.1594 0.914062 10.7056 0.996562 10.2656 1.10656V2.97656C10.2656 3.36156 9.96313 3.66406 9.57812 3.66406C9.19312 3.66406 8.89062 3.36156 8.89062 2.97656V1.67031C7.25437 2.63281 6.14062 4.37906 6.14062 6.41406H5.78312C5.41187 6.41406 5.10938 6.71656 5.10938 7.08781V7.12906C5.10938 7.48656 5.41187 7.78906 5.78312 7.78906Z" fill="#009AE0"/>
<path d="M11.6356 13.2891C14.1931 13.2891 16.3244 11.5291 16.9431 9.16406H6.32812C6.94687 11.5291 9.07813 13.2891 11.6356 13.2891Z" fill="#009AE0"/>
</svg>
