<svg width="34" height="34" viewBox="0 0 34 34" fill="none" xmlns="http://www.w3.org/2000/svg">
<path fill-rule="evenodd" clip-rule="evenodd" d="M27.0313 18.0407H27.5932L31.1422 21.597L30.0824 22.6568L26.5264 19.1076V18.5457L26.3344 18.3465C25.5236 19.0436 24.471 19.4632 23.326 19.4632C20.7727 19.4632 18.7031 17.3934 18.7031 14.84C18.7031 12.2866 20.7727 10.2168 23.326 10.2168C25.8792 10.2168 27.9488 12.2866 27.9488 14.84C27.9488 15.9851 27.5292 17.0378 26.8322 17.8487L27.0313 18.0407ZM20.1255 14.84C20.1255 16.6111 21.555 18.0407 23.326 18.0407C25.0969 18.0407 26.5264 16.6111 26.5264 14.84C26.5264 13.069 25.0969 11.6393 23.326 11.6393C21.555 11.6393 20.1255 13.069 20.1255 14.84Z" fill="#009AE0"/>
</svg>
