<svg width="31" height="31" viewBox="0 0 31 31" fill="none" xmlns="http://www.w3.org/2000/svg">
<path fill-rule="evenodd" clip-rule="evenodd" d="M27.9219 10.8828C27.9219 9.49531 26.8094 8.38281 25.4219 8.38281H20.4219V5.88281C20.4219 4.49531 19.3094 3.38281 17.9219 3.38281H12.9219C11.5344 3.38281 10.4219 4.49531 10.4219 5.88281V8.38281H5.4219C4.03438 8.38281 2.93434 9.49531 2.93434 10.8828L2.92188 24.6328C2.92188 26.0203 4.03438 27.1328 5.4219 27.1328H25.4219C26.8094 27.1328 27.9219 26.0203 27.9219 24.6328V10.8828ZM17.9218 8.38281V5.88281H12.9218V8.38281H17.9218ZM5.42183 10.8828V24.6328H25.4218V10.8828H5.42183Z" fill="#575757"/>
</svg>
