<svg width="20" height="20" viewBox="0 0 20 20" fill="none" xmlns="http://www.w3.org/2000/svg">
<g clip-path="url(#clip0_1_1111)">
<path d="M10.181 10.0124C9.31016 10.0124 8.59766 9.29987 8.59766 8.42904C8.59766 7.5582 9.31016 6.8457 10.181 6.8457C11.0518 6.8457 11.7643 7.5582 11.7643 8.42904C11.7643 9.29987 11.0518 10.0124 10.181 10.0124ZM14.931 8.58737C14.931 5.71362 12.8331 3.67904 10.181 3.67904C7.52891 3.67904 5.43099 5.71362 5.43099 8.58737C5.43099 10.4399 6.97474 12.894 10.181 15.8232C13.3872 12.894 14.931 10.4399 14.931 8.58737ZM10.181 2.0957C13.506 2.0957 16.5143 4.64487 16.5143 8.58737C16.5143 11.2157 14.4006 14.327 10.181 17.929C5.96141 14.327 3.84766 11.2157 3.84766 8.58737C3.84766 4.64487 6.85599 2.0957 10.181 2.0957Z" fill="#222222"/>
</g>
<defs>
<clipPath id="clip0_1_1111">
<rect width="19" height="19" fill="white" transform="translate(0.679688 0.511719)"/>
</clipPath>
</defs>
</svg>
