<svg width="20" height="24" viewBox="0 0 20 24" fill="none" xmlns="http://www.w3.org/2000/svg">
<path fill-rule="evenodd" clip-rule="evenodd" d="M9.90013 0.476562C8.91112 0.476562 8.10938 1.27831 8.10938 2.26732V3.07034C4.45069 3.92876 1.72656 7.21302 1.72656 11.1335V17.8301H0.273438V20.7617H19.7539V17.8301H18.2905V11.1335C18.2905 7.13596 15.4582 3.7999 11.6909 3.02254V2.26732C11.6909 1.27831 10.8891 0.476562 9.90013 0.476562ZM15.2905 11.1335V17.7616H4.72656V11.1335C4.72656 8.21638 7.09138 5.85156 10.0085 5.85156C12.9257 5.85156 15.2905 8.21638 15.2905 11.1335Z" fill="#585858"/>
<path d="M12.4153 21.4482C12.4153 22.7754 11.3395 23.8512 10.0123 23.8512C8.68522 23.8512 7.60938 22.7754 7.60938 21.4482H12.4153Z" fill="#585858"/>
</svg>
