<svg width="14" height="13" viewBox="0 0 14 13" fill="none" xmlns="http://www.w3.org/2000/svg">
<path fill-rule="evenodd" clip-rule="evenodd" d="M9.1014 8.28874H9.66328L13.2122 11.8451L12.1525 12.9048L8.59647 9.35564V8.79374L8.40443 8.59459C7.5937 9.29163 6.54106 9.71127 5.39604 9.71127C2.84278 9.71127 0.773193 7.64149 0.773193 5.08806C0.773193 2.53462 2.84278 0.464844 5.39604 0.464844C7.9493 0.464844 10.0189 2.53462 10.0189 5.08806C10.0189 6.23319 9.59925 7.28586 8.90228 8.0967L9.1014 8.28874ZM2.19561 5.08806C2.19561 6.8591 3.62511 8.28874 5.39604 8.28874C7.16697 8.28874 8.59647 6.8591 8.59647 5.08806C8.59647 3.31701 7.16697 1.88737 5.39604 1.88737C3.62511 1.88737 2.19561 3.31701 2.19561 5.08806Z" fill="white"/>
</svg>
