<svg width="14" height="14" viewBox="0 0 14 14" fill="none" xmlns="http://www.w3.org/2000/svg">
<path d="M7.03125 0.871094C3.58125 0.871094 0.78125 3.67109 0.78125 7.12109C0.78125 10.5711 3.58125 13.3711 7.03125 13.3711C10.4812 13.3711 13.2812 10.5711 13.2812 7.12109C13.2812 3.67109 10.4812 0.871094 7.03125 0.871094ZM7.03125 12.1211C4.275 12.1211 2.03125 9.87734 2.03125 7.12109C2.03125 4.36484 4.275 2.12109 7.03125 2.12109C9.7875 2.12109 12.0312 4.36484 12.0312 7.12109C12.0312 9.87734 9.7875 12.1211 7.03125 12.1211ZM9.9 4.35859L5.78125 8.47734L4.1625 6.86484L3.28125 7.74609L5.78125 10.2461L10.7812 5.24609L9.9 4.35859Z" fill="#32C438"/>
</svg>
